<!-- Generated by IcoMoon.io -->
<svg version="1.1" xmlns="http://www.w3.org/2000/svg" width="45" height="32" viewBox="0 0 45 32">
<title>handshake-inter</title>
<path d="M19.954 3.662c1.066-0.282 1.916-0.763 3.189-0.84 1.365-0.083 2.337 0.234 3.573 0.416 0.419 0.163 1.49 0.499 1.994 0.466 0.403 0.323 1.986 0.512 2.473 0.55l1.093 0.054 1.113 2.11c0.244 0.803 0.781 1.713 1.147 2.522l1.24 2.368c0.024 0.344 0.601 1.648 0.821 1.788 0.225 0.757 0.71 1.587 1.048 2.309 0.745 1.59 0.716 0.803 0.198 2.365-0.126 0.125-0.507 0.877-0.466 1.071 0.002 0.009 0.63 1.001 0.651 1.030 0.193 0.959 0.287 1.148 0.075 2.212l-0.246 0.657c-0.023 0.020-0.055 0.023-0.065 0.064l-0.124 0.126c-0.016 0.017-0.041 0.044-0.057 0.063-0.895 0.974-1.105 1.076-2.599 1.297-0.097 1.36-0.201 1.365-0.778 2.27-0.18 0.122-0.648 0.413-0.733 0.55-0.759 0.212-1.082 0.269-1.984 0.253-0.27 1.74-1.431 2.821-3.448 2.597-0.794-0.193-0.92-0.449-1.514-0.646-0.39 0.985-0.961 1.238-2.033 1.646-1.509 0.117-1.396-0.288-2.345-0.463l-0.354 0.632c-0.451 0.244-0.348 0.622-1.426 0.869-1.575 0.062-2.25-0.822-2.187-2.378-0.377 0.174-0.055-0.011-0.348 0.221-0.218 0.172-0.294 0.373-0.803 0.536-0.653 0.209-0.991 0.077-1.589-0.043-0.398-0.559-1.45-0.396-1.072-2.77-2.428 0.925-1.961 0.126-3.049-0.109-0.163-0.278-0.217-0.326-0.377-0.622-0.051-0.094-0.093-0.192-0.157-0.302-0.176-0.302-0.027-0.080-0.157-0.235 0.108-0.557 0.045-0.876 0.218-1.5-0.493 0.264-0.6 0.34-1.083 0.546-1.583 0.090-2.757-0.661-2.742-2.223 0.012-1.235 1.316-2.278 1.785-3.228 0.653-0.52-2.487-2.741-2.156-3.66 0.111-0.308 0.599-1.231 0.762-1.429 0.489 0.539 0.963 1.138 1.441 1.766 0.454 0.596 1.114 1.289 1.463 1.859 1.662-0.21 2.151 0.065 2.864 1.131 0.205 0.682 0.221 0.773 0.164 1.554-0.018 0.424 0.323 0.604 0.758 0.633 0.654 0.044 0.899 0.173 1.317 0.216 0.020 0.026 0.046 0.036 0.058 0.080 0.011 0.043 0.045 0.060 0.060 0.074 0.123 0.113 0.035 0.053 0.208 0.159 1.245 1.723 0.361 1.452 0.972 2.016 0.541 0.5 1.456 0.016 2.283 0.722 0.899 0.767 0.378 1.828 2.091 2.471 0.664 0.249 0.552 0.225 0.983 0.556 0.312 0.508 0.851 1.188 1.505 1.324 0.861 0.178 1.54-0.36 1.549-1.125-0.435-0.472-1.803-1.304-2.378-1.745-0.803-0.617-2.082-0.975-1.635-2.261l0.846-0.242 3.486 2.478c0.695 0.512 2.526 2.026 3.22 1.956 0.208-0.021 0.113-0.009 0.259-0.069 0.2-0.082 0.107-0.049 0.227-0.156 0.626-0.094 0.958-1.062 0.521-1.728-0.246-0.374-1.177-0.97-1.613-1.282l-2.528-1.813c-0.352-0.253-0.512-0.459-0.885-0.529-0.229-0.379-0.757-0.704-1.146-0.846-0.194-0.335-0.746-0.505-0.562-1.168 0.168-0.607 0.75-0.481 1.308-0.443 0.27 0.423 0.743 0.623 1.142 0.903 0.407 0.285 0.773 0.563 1.159 0.844 0.597 0.435 1.834 1.425 2.424 1.646 0.159 0.315 0.672 0.561 1.022 0.807 0.422 0.297 0.735 0.525 1.159 0.845 0.991 0.748 2.232 0.257 2.207-0.981-0.133-0.765-0.415-0.891-0.951-1.276-0.418-0.3-0.816-0.641-1.296-0.868-0.338-0.396-2.532-1.868-3.188-2.331-0.57-0.402-1.060-0.757-1.614-1.168-0.383-0.284-1.301-1-1.589-1.157-0.228-0.636-0.137-1.207 0.531-1.276 0.504-0.052 1.085 0.524 1.537 0.727 0.104 0.255 6.106 4.55 6.483 4.614 0.195 0.331 0.287 0.342 0.653 0.535 1.13 1.137 3.25-0.149 2.543-1.803-0.203-0.474-0.994-1.028-1.385-1.396-0.313-0.295-1.209-1.111-1.525-1.214-0.172-0.329-0.061-0.211-0.423-0.394-0.064-0.195-1.546-1.538-1.882-1.623-0.168-0.275 0.075 0.015-0.221-0.287-0.105-0.107-0.179-0.155-0.322-0.256-0.218-0.268-0.476-0.426-0.75-0.678-0.324-0.297-0.529-0.546-0.867-0.655-0.262-0.546-3.795-3.298-4.894-4.494-0.41-0.446-1.514-0.651-2.197-0.515-0.543 0.108 0.334-0.117-0.202 0.060l-0.187 0.086c-0.569 0.069-1.42 0.824-1.363 1.412-0.019 0.027-0.039 0.039-0.046 0.088l-0.545 1.506c-2.118 3.896-6.856 2.922-6.002 0.67 1.014-2.675 0.399-1.509 0.834-3.742-0.113-1.040 0.78-2.017 0.998-2.742l-4.22-0.013c0.189-0.605 0.721-1.262 0.768-1.887 0.842-0.509 5.492-0.022 6.519-0.177 0.521-0.079 0.208 0.032 0.408-0.175 0.318-0.025 0.735-0.158 0.96-0.362zM33.527 1.85c0.411-0.502 2.079-1.302 2.873-1.664 1.701-0.775 1.784 1.072 2.402 1.885l2.25 4.617c0.013 0.016 0.038 0.046 0.060 0.067 0.021 0.339 1.749 3.973 1.953 4.155 0.531 1.923 2.552 3.489 0.648 4.495-0.428 0.226-1.209 0.522-1.51 0.86-0.974 0.104-0.403 0.495-2.022 0.33-0.165-0.266-0.236-0.285-0.418-0.636-0.068-0.131-0.113-0.262-0.184-0.375-0.168-0.268-0.047-0.113-0.223-0.271-0.010-0.363-1.731-3.963-1.977-4.223l-2.345-4.82c-0.054-0.591-1.332-2.742-1.596-3.562l0.089-0.858zM5.531 2.331c0.023-0.021 0.054-0.086 0.063-0.067l0.379-0.665c0.933-2.088 1.228-2.007 4.495-0.202 0.204 0.113 0.165 0.075 0.323 0.229l0.334 0.395-0.047 0.011c0.142 1.256-1.435 3.286-1.766 4.515-0.223 0.264-2.002 3.973-2.029 4.344-0.415 0.34-2.192 4.369-2.28 4.654-0.21 0.182-0.434 0.736-0.491 0.907-1.394 0.533-1.243 0.066-2.404-0.332-0.702-0.693-2.285-0.591-2.093-1.99 0.109-0.789 1.214-2.171 1.264-2.94l2.299-4.693c0.222-0.268 1.937-3.835 1.952-4.166z"></path>
</svg>
