<!-- Generated by IcoMoon.io -->
<svg version="1.1" xmlns="http://www.w3.org/2000/svg" width="51" height="32" viewBox="0 0 51 32">
<title>handshake</title>
<path d="M5.859 16.303l0.977 1.204c0.234 0.301 0.814 0.971 0.957 1.233 0.471-0.105 1.269-1.256 2.924-0.669 0.509 0.181 0.87 0.456 1.155 0.754 0.409 0.43 0.441 0.676 0.78 1.184 0.283-0.188 0.554-0.918 1.291-1.348 1.19-0.695 2.918-0.151 3.655 1.074 0.442 0.735 0.422 1.224 0.452 2.179 0.614 0.055 0.78 0.023 1.287 0.294 0.316 0.168 0.776 0.512 0.934 0.7 0.829 0.987 0.7 1.623 0.768 2.446 0.829 0.278 1.945 0.205 2.727 1.704 0.931 1.783-0.187 2.697-0.361 3.363 0.627 0.409 2.991 0.911 3.928 0.985 0.769 0.061 1.565 0.031 2.136-0.309 0.367-0.218 1.172-0.852 1.239-1.244-0.43-0.418-4.839-2.329-5.044-2.667-0.206-0.343 0.083-0.865 0.67-0.675 0.537 0.174 3.448 1.617 4.213 1.977 0.719 0.338 1.527 0.687 2.455 0.513 0.956-0.179 1.417-1.159 1.381-1.736-0.033-0.517-1.299-1.127-1.737-1.383-0.569-0.332-4.56-2.549-4.788-2.919-0.215-0.351 0.249-0.817 0.651-0.651 0.518 0.215 5.203 2.972 5.928 3.353 0.765 0.401 1.537 0.639 2.425 0.172 0.814-0.429 0.927-1.096 0.863-2.239-1.317-0.847-2.834-1.671-4.165-2.51-0.943-0.594-2.19-1.317-3.081-1.925-0.329-0.225-0.785-0.439-0.286-0.943 0.633-0.343 7.911 4.534 8.568 4.759 0.755 0.257 2.709-0.024 2.562-1.843-0.078-0.964-1.247-1.778-2.040-2.397-2.244-1.747-5.387-4.105-7.78-5.602-2.406-1.505-3.86-2.296-6.345-3.61-0.319-0.168-0.433-0.316-0.817-0.205-0.414 0.119-1.46 0.373-1.667 0.586-0.764 0.792-0.731 1.155-2.179 2.318-1.181 0.949-3.279 1.902-4.935 1.504-0.528-0.127-1.017-0.588-1.068-1.194-0.118-1.405 0.577-2.419 1.163-3.297 0.274-0.412 1.725-2.423 1.783-2.722-0.817-0.376-2.542-0.254-4.015-1.052-0.262-0.142-0.862-0.547-1.111-0.593-0.284 0.388-0.572 0.968-0.813 1.394-0.737 1.307-5.327 9.314-5.641 10.033z"></path>
<path d="M41.229 18.885c0.546-0.428 0.919-0.454 1.783-1.289 0.464-0.448 1.243-1.071 1.589-1.574-0.084-0.286-2.938-5.26-3.15-5.633-0.797-1.393-2.431-4.455-3.177-5.587-1.131-0.054-1.075 0.626-4.025 0.083-1.277-0.235-2.484-0.573-3.833-0.772-2.449-0.361-6.176-0.149-8.543 0.328-1.846 0.371-1.933 0.573-2.822 1.788-0.656 0.896-1.292 1.777-1.908 2.703-0.322 0.486-0.608 0.89-0.917 1.387-0.306 0.491-0.627 0.924-0.642 1.653-0.017 0.84 0.329 0.931 1.457 0.742 0.702-0.118 1.217-0.315 1.75-0.619 1.176-0.672 2.264-1.684 2.968-2.767 0.262-0.403 0.153-0.338 0.68-0.501 2.722-0.84 1.866-0.942 4.971 0.699 0.97 0.512 2.033 1.129 2.985 1.684 2.992 1.745 6.688 4.462 9.49 6.647 0.288 0.225 1.077 0.937 1.344 1.028z"></path>
<path d="M0 14.77c0.151 0.106 0.258 0.229 0.445 0.356 0.668 0.457 3.068 1.98 3.547 2.007 0.501-0.473 3.81-6.471 4.24-7.218 1.059-1.838 2.034-3.713 3.071-5.531 0.301-0.527 0.791-1.363 1-1.911-0.179-0.257-3.472-2.37-3.925-2.472-0.318 0.171-0.466 0.504-0.665 0.851l-1.54 2.731c-0.311 0.591-0.691 1.234-1.038 1.832l-5.135 9.204v0.152z"></path>
<path d="M50.603 14.715l-1.998-3.721c-0.659-1.161-5.734-10.334-6.324-10.948-0.407 0.027-3.857 2.133-3.925 2.427-0.059 0.253 5.498 10.033 6.085 11.053l2.101 3.638c0.623-0.042 3.752-2.047 4.060-2.363v-0.084z"></path>
<path d="M14.827 19.421c-0.569 0.135-1.391 1.359-1.732 1.825l-2.223 3.062c-0.294 0.404-0.498 0.77-0.323 1.393 0.224 0.794 1.048 1.65 2.143 1.438 0.706-0.137 2.711-3.154 3.235-3.851 0.256-0.341 0.488-0.668 0.724-1.018 0.29-0.429 0.465-0.75 0.271-1.407-0.217-0.734-1.066-1.685-2.096-1.442z"></path>
<path d="M17.788 23.008c-0.29 0.070-0.316 0.104-0.46 0.279-0.924 1.125-1.497 1.841-2.375 3.078-0.461 0.652-0.992 1.264-0.516 2.262 0.288 0.605 1.065 1.284 2.015 1.081 0.691-0.148 2.339-2.669 2.825-3.347 0.436-0.609 0.965-1.244 0.52-2.254-0.266-0.604-1.076-1.324-2.010-1.099z"></path>
<path d="M20.964 26.509c-0.472 0.089-0.565 0.264-0.785 0.528-0.541 0.649-1.196 1.512-1.641 2.239-0.955 1.56 0.769 2.902 1.803 2.706 0.745-0.142 2.023-2.076 2.442-2.737 0.973-1.541-0.767-2.933-1.817-2.736z"></path>
<path d="M9.393 19.038c-0.63 0.195-1.873 2.066-1.938 2.52-0.151 1.051 1.141 2.424 2.224 2.066 0.414-0.137 0.895-0.745 1.129-1.067 0.246-0.339 0.777-0.943 0.829-1.417 0.142-1.265-1.007-2.484-2.244-2.101z"></path>
</svg>
