<!-- Generated by IcoMoon.io -->
<svg version="1.1" xmlns="http://www.w3.org/2000/svg" width="51" height="32" viewBox="0 0 51 32">
<title>mgmt</title>
<path d="M23.999 29.388c-0.439-0.468-1.533-3.129-1.833-3.933-0.741-1.985-0.815-2.858-1.343-4.513-0.379 0.003-2.424 0.77-2.918 0.949-3.592 1.3-4.977 2.12-4.973 6.997 0.001 1.359 0.492 2.106 1.289 2.642 0.555 0.373 0.787 0.399 1.549 0.424 0.664 0.022 1.329 0.029 1.993 0.033l15.879 0c1.177-0.006 2.711 0.135 3.568-0.431 0.822-0.543 1.319-1.308 1.321-2.669 0.004-2.783-0.447-4.592-2.155-5.757-0.653-0.445-4.778-2.085-5.759-2.208-0.226 0.679-0.384 1.571-0.589 2.293-0.654 2.301-1.417 4.116-2.549 6.185-0.121-0.17-0.097-0.267-0.123-0.582-0.144-1.76-0.121-2.905-0.375-4.921-0.139-1.105 0.532-1.219 0.775-2.12 0.296-1.097-1.237-0.957-2.020-0.957-1.574 0.001-2.731-0.080-1.555 1.908 0.314 0.53 0.411 0.414 0.307 1.173-0.1 0.732-0.374 5.313-0.489 5.488z"></path>
<path d="M19.357 8.557c-0.57 0.032-1.001 0.079-1.083 0.596-0.132 0.838 0.068 2.815 0.794 3.39 0.385 0.305 0.598-0.026 0.758 0.463 0.339 1.034 0.016 0.476 0.74 1.959 0.627 1.285 1.624 2.609 2.738 3.433 1.362 1.007 3.475 1.021 4.788 0.055 0.578-0.426 1.122-0.988 1.564-1.522 1.027-1.239 1.61-2.617 2.055-4.185 0.705-0.080 0.718-0.075 1.023-0.645 0.399-0.747 0.569-2.025 0.448-2.881-0.094-0.662-0.405-0.635-1.073-0.66-0.214-2.089 0.521-4.076-1.2-6.254-1.064-1.347-3.304-2.255-5.175-2.304-1.693-0.045-4.245 1.024-5.177 2.302-1.747 2.395-0.985 4.054-1.201 6.253z"></path>
<path d="M39.878 15.918c0.187 1.401-1.079 1.006 0.090 3.107 0.309 0.556 1.456 2.1 1.84 2.269 0.38-0.15 1.508-1.687 1.811-2.23 1.073-1.919 0.19-1.563 0.080-3.168 1.336-0.006 2.74-0.312 3.749-1.102 0.474-0.371 0.545-0.392 0.23-0.969-0.822-1.506 0.473-2.664 0.404-5.575-0.081-3.429-2.824-6.725-6.34-6.684-0.41 0.005-1.001 0.141-1.311 0.297-0.387 0.195-0.606 0.492-1.065 0.563-1.186 0.183-1.497 0.501-2.095 1.163-1.688 1.869-2.145 5.090-1.427 7.682 0.24 0.866 0.627 1.764 0.072 2.598-0.345 0.519-0.348 0.54 0.136 0.91 1.024 0.784 2.521 1.051 3.825 1.14z"></path>
<path d="M4.907 7.93c-0.349 0.26-0.624 0.027-0.773 0.509-0.156 0.503 0.127 1.748 0.36 2.217 0.282 0.569 0.287 0.367 0.837 0.502 0.128 1.050 0.955 2.45 1.447 3.064 0.615 0.769 1.371 1.709 2.886 1.706 1.858-0.004 3.005-1.679 3.731-3.048 0.137-0.259 0.251-0.515 0.354-0.803 0.343-0.957 0.039-0.841 0.539-0.953 0.841-0.188 0.999-2.237 0.911-2.612-0.111-0.468-0.382-0.425-0.767-0.58-0.041-1.666-0.058-3.52-0.876-4.665-1.28-1.792-5.563-2.382-6.955-0.589-0.242 0.312-0.328 0.615-0.602 0.812-0.605 0.434-0.806 0.862-0.987 1.787-0.265 1.349-0.018 1.933-0.103 2.651z"></path>
<path d="M11.528 25.602c0.198-0.445 0.272-1.204 0.982-2.224 1.776-2.553 4.315-2.599 6.133-3.567-0.169-0.591-1.831-1.426-2.558-1.778-0.528-0.256-2.641-1.241-3.142-1.281-0.109 0.227-1.151 5.124-2.122 6.231-0.051-0.053-0.133 0.108-0.154-0.584l-0.139-2.028c-0.063-0.629-0.156-0.771 0.113-1.305 0.641-1.272 0.41-1.458-1.042-1.461-1.582-0.004-1.486 0.36-0.896 1.507 0.238 0.463 0.129 0.792 0.087 1.334-0.038 0.489-0.118 2.328-0.285 2.635-0.824-0.977-2.086-6.203-2.186-6.345-0.859 0.167-3.726 1.584-4.552 2.075-1.744 1.037-1.908 2.948-1.696 4.872 0.263 2.386 2.765 1.927 4.769 1.941 1.030 0.007 6.078 0.065 6.686-0.019z"></path>
<path d="M32.883 19.827c1.498 0.664 3.176 1.069 4.464 1.948 0.65 0.444 1.143 0.942 1.593 1.623 0.208 0.315 0.408 0.657 0.581 1.024 0.084 0.178 0.161 0.342 0.234 0.541 0.075 0.205 0.1 0.443 0.187 0.636 0.613 0.093 8.447 0.032 9.387-0.039 1.075-0.081 1.615-0.46 1.913-1.315 0.451-1.293 0.288-3.845-1.002-4.947-0.906-0.774-3.291-1.738-4.548-1.882 0.171 0.515 0.931 1.141 0.936 3.126-0.42-0.449-0.689-1.414-1.413-1.521-0.322 0.216-0.572 0.955-0.773 1.314-0.252 0.448-0.5 0.872-0.775 1.284-0.389 0.582-1.347 2.078-1.859 2.28-0.495 0.002-2.243-2.864-2.624-3.574-0.229-0.427-0.446-1.063-0.784-1.291-0.721 0.079-1.013 1.109-1.41 1.505-0.009-0.84 0.171-1.661 0.518-2.378 0.139-0.287 0.284-0.406 0.356-0.74-1.491 0.228-4.608 1.509-4.98 2.408z"></path>
</svg>
