<!-- Generated by IcoMoon.io -->
<svg version="1.1" xmlns="http://www.w3.org/2000/svg" width="35" height="32" viewBox="0 0 35 32">
<title>services</title>
<path d="M5.832 21.502c0.923-0.287 1.777-0.802 2.816-1.092 2.607-0.727 4.739 0.216 7.080 0.233 1.658 0.012 6.633-0.575 7.348-0.172 0.828 0.468 1.632 2.867-0.847 3.369l-4.911 0.88c-0.584 0.105-1.148 0.205-1.724 0.307-1.265 0.224-0.664 0.859-0.485 0.916 0.268 0.084 2.993-0.298 3.461-0.362 2.056-0.285 4.587-0.61 6.218-1.513 1.16-0.642 5.916-4.486 6.864-4.817 1.246-0.434 2.177 0.362 1.952 1.627-0.181 1.018-1.156 1.544-1.866 2.083l-6.664 5.017c-1.685 1.265-2.604 2.24-5.561 2.274-2.519 0.030-5.033 0.126-7.57 0.163-1.292 0.018-2.558 0.066-3.867 0.081-0.972 0.011-0.937-0.050-1.431 0.482-0.339 0.365-0.619 0.545-1.258 0.669-3.652 0.708-4.255 0.559-4.626-2.398-0.148-1.18-0.295-2.333-0.448-3.509-0.108-0.828-0.531-2.77-0.167-3.438 0.556-1.018 1.313-1 2.663-1.196 1.962-0.286 1.854-0.554 3.023 0.397zM18.369 1.692c0.789-1.222-0.030-2.152 1.975-1.449 2.063 0.724 0.919 0.921 0.838 2.467 0.416 0.283 1.079 1.051 1.519 1.458 0.329 0.305 0.426 0.534 1.021 0.227 0.261-0.135 0.673-0.442 1.002-0.388 0.452 0.074 0.969 1.398 1.12 1.859 0.339 1.035-0.771 1.068-1.316 1.574-0.101 0.641 0.092 2.265 0.162 2.975 0.645 0.274 1.714 0.364 1.541 1.242-0.59 3.004-1.299 1.917-2.467 1.668-0.223 0.24-0.439 0.499-0.703 0.798-0.649 0.735-1.27 1.22-1.008 1.807 0.497 1.111 0.786 1.325-0.285 1.897-1.223 0.653-1.735 1.235-2.408-0.895-3.318-0.031-2.811 0.053-3.11 1.015-0.163 0.523-0.179 0.639-0.45 0.78-0.44 0.229-2.23-0.627-2.327-0.788-0.19-1.145 0.914-1.632-0.125-2.323-0.483-0.321-1.272-1.073-1.552-1.497-0.604 0.177-1.441 1.028-1.95 0.329-0.166-0.229-0.824-1.693-0.788-2.001 0.099-0.852 1.432-0.539 1.449-1.463 0.007-0.377-0.145-0.832-0.161-1.288-0.015-0.415 0.093-0.992-0.069-1.314-0.3-0.322-1.042-0.283-1.393-0.626-0.36-0.351-0.040-1.057 0.105-1.497 0.684-2.070 0.765-1.028 2.228-0.845l1.131-1.357c0.811-0.977 0.801-0.758 0.467-1.442-0.39-0.798-0.575-1.161 0.203-1.595 2.312-1.29 1.762-0.593 2.631 0.799l2.72-0.127zM16.74 5.014c-5.341 1.101-3.848 9.717 1.551 8.686 2.050-0.391 3.731-2.595 3.276-5.188-0.365-2.083-2.268-4.026-4.828-3.498zM29.555 5.472c0.015-0.468-0.108-0.898 0.325-1.041 0.39-0.128 0.921-0.056 1.058 0.197 0.452 0.831-0.384 0.52 1.466 1.216 0.341-0.212 0.59-0.776 1.079-0.463 0.32 0.204 0.736 0.595 0.398 1.114-0.373 0.573-0.255 0.479 0.064 1.168 0.35 0.758 0.355 0.461 1.143 0.645 0.116 0.286 0.18 0.782 0.038 1.126-0.165 0.402-0.456 0.295-0.896 0.4-0.111 0.286-0.164 0.587-0.296 0.905-0.16 0.387-0.192 0.557 0.090 0.876 0.219 0.247 0.371 0.43 0.151 0.813-0.562 0.976-0.946 0.451-1.368 0.106-0.188 0.063-0.868 0.424-1.045 0.545-0.44 0.301-0.072 0.358-0.397 1.122-1.832 0.409-0.818-0.63-1.603-0.981-0.232-0.104-0.903-0.364-1.171-0.397-0.16 0.202-0.488 0.654-0.873 0.51-0.216-0.081-0.678-0.494-0.606-0.87 0.098-0.514 0.526-0.429 0.252-1.028-0.128-0.281-0.339-0.776-0.52-0.999-0.406-0.034-0.809 0.021-0.953-0.361-0.139-0.371-0.060-0.908 0.147-1.115 0.251-0.165 0.509-0.086 0.823-0.154 1.137-2.184-0.606-1.713 0.214-2.75 0.421-0.532 0.666-0.553 1.213 0.117l1.265-0.698zM16.955 6.611c1.627-0.396 2.896 0.854 3.122 2.199 0.28 1.67-0.741 3.080-2.036 3.351-3.418 0.716-4.572-4.702-1.086-5.55zM30.261 7.502c-2.335 0.445-1.694 4.072 0.576 3.677 0.915-0.159 1.577-1.108 1.402-2.207-0.139-0.873-0.95-1.666-1.977-1.47zM25.353 21.914c-0.17-1.487-0.401-1.196 1.932-2.599 0.93-0.559 2.492-1.784 3.195-1.003-0.34 0.36-4.872 3.582-5.127 3.603zM23.742 19.072c0.525-0.407 1.351-0.755 1.988-1.074s1.398-0.88 2.162-0.331c-0.211 0.229-0.387 0.269-0.837 0.531l-2.614 1.456c-0.259-0.194-0.458-0.364-0.699-0.582z"></path>
</svg>
