<svg aria-hidden="true" style="position: absolute; width: 0; height: 0; overflow: hidden;" version="1.1" xmlns="http://www.w3.org/2000/svg" xmlns:xlink="http://www.w3.org/1999/xlink">
<defs>
<symbol id="icon-chevron-right" viewBox="0 0 19 28">
<path d="M17.297 13.703l-11.594 11.594c-0.391 0.391-1.016 0.391-1.406 0l-2.594-2.594c-0.391-0.391-0.391-1.016 0-1.406l8.297-8.297-8.297-8.297c-0.391-0.391-0.391-1.016 0-1.406l2.594-2.594c0.391-0.391 1.016-0.391 1.406 0l11.594 11.594c0.391 0.391 0.391 1.016 0 1.406z"></path>
</symbol>
<symbol id="icon-chevron-thin-right" viewBox="0 0 20 20">
<path d="M13.25 10l-7.141-7.42c-0.268-0.27-0.268-0.707 0-0.979 0.268-0.27 0.701-0.27 0.969 0l7.83 7.908c0.268 0.271 0.268 0.709 0 0.979l-7.83 7.908c-0.268 0.271-0.701 0.27-0.969 0s-0.268-0.707 0-0.979l7.141-7.417z"></path>
</symbol>
<symbol id="icon-cheveron-right" viewBox="0 0 20 20">
<path d="M12.95 10.707l0.707-0.707-5.657-5.657-1.414 1.414 4.242 4.243-4.242 4.243 1.414 1.414 4.95-4.95z"></path>
</symbol>
<symbol id="icon-handshake-inter" viewBox="0 0 45 32">
<path d="M19.954 3.662c1.066-0.282 1.916-0.763 3.189-0.84 1.365-0.083 2.337 0.234 3.573 0.416 0.419 0.163 1.49 0.499 1.994 0.466 0.403 0.323 1.986 0.512 2.473 0.55l1.093 0.054 1.113 2.11c0.244 0.803 0.781 1.713 1.147 2.522l1.24 2.368c0.024 0.344 0.601 1.648 0.821 1.788 0.225 0.757 0.71 1.587 1.048 2.309 0.745 1.59 0.716 0.803 0.198 2.365-0.126 0.125-0.507 0.877-0.466 1.071 0.002 0.009 0.63 1.001 0.651 1.030 0.193 0.959 0.287 1.148 0.075 2.212l-0.246 0.657c-0.023 0.020-0.055 0.023-0.065 0.064l-0.124 0.126c-0.016 0.017-0.041 0.044-0.057 0.063-0.895 0.974-1.105 1.076-2.599 1.297-0.097 1.36-0.201 1.365-0.778 2.27-0.18 0.122-0.648 0.413-0.733 0.55-0.759 0.212-1.082 0.269-1.984 0.253-0.27 1.74-1.431 2.821-3.448 2.597-0.794-0.193-0.92-0.449-1.514-0.646-0.39 0.985-0.961 1.238-2.033 1.646-1.509 0.117-1.396-0.288-2.345-0.463l-0.354 0.632c-0.451 0.244-0.348 0.622-1.426 0.869-1.575 0.062-2.25-0.822-2.187-2.378-0.377 0.174-0.055-0.011-0.348 0.221-0.218 0.172-0.294 0.373-0.803 0.536-0.653 0.209-0.991 0.077-1.589-0.043-0.398-0.559-1.45-0.396-1.072-2.77-2.428 0.925-1.961 0.126-3.049-0.109-0.163-0.278-0.217-0.326-0.377-0.622-0.051-0.094-0.093-0.192-0.157-0.302-0.176-0.302-0.027-0.080-0.157-0.235 0.108-0.557 0.045-0.876 0.218-1.5-0.493 0.264-0.6 0.34-1.083 0.546-1.583 0.090-2.757-0.661-2.742-2.223 0.012-1.235 1.316-2.278 1.785-3.228 0.653-0.52-2.487-2.741-2.156-3.66 0.111-0.308 0.599-1.231 0.762-1.429 0.489 0.539 0.963 1.138 1.441 1.766 0.454 0.596 1.114 1.289 1.463 1.859 1.662-0.21 2.151 0.065 2.864 1.131 0.205 0.682 0.221 0.773 0.164 1.554-0.018 0.424 0.323 0.604 0.758 0.633 0.654 0.044 0.899 0.173 1.317 0.216 0.020 0.026 0.046 0.036 0.058 0.080 0.011 0.043 0.045 0.060 0.060 0.074 0.123 0.113 0.035 0.053 0.208 0.159 1.245 1.723 0.361 1.452 0.972 2.016 0.541 0.5 1.456 0.016 2.283 0.722 0.899 0.767 0.378 1.828 2.091 2.471 0.664 0.249 0.552 0.225 0.983 0.556 0.312 0.508 0.851 1.188 1.505 1.324 0.861 0.178 1.54-0.36 1.549-1.125-0.435-0.472-1.803-1.304-2.378-1.745-0.803-0.617-2.082-0.975-1.635-2.261l0.846-0.242 3.486 2.478c0.695 0.512 2.526 2.026 3.22 1.956 0.208-0.021 0.113-0.009 0.259-0.069 0.2-0.082 0.107-0.049 0.227-0.156 0.626-0.094 0.958-1.062 0.521-1.728-0.246-0.374-1.177-0.97-1.613-1.282l-2.528-1.813c-0.352-0.253-0.512-0.459-0.885-0.529-0.229-0.379-0.757-0.704-1.146-0.846-0.194-0.335-0.746-0.505-0.562-1.168 0.168-0.607 0.75-0.481 1.308-0.443 0.27 0.423 0.743 0.623 1.142 0.903 0.407 0.285 0.773 0.563 1.159 0.844 0.597 0.435 1.834 1.425 2.424 1.646 0.159 0.315 0.672 0.561 1.022 0.807 0.422 0.297 0.735 0.525 1.159 0.845 0.991 0.748 2.232 0.257 2.207-0.981-0.133-0.765-0.415-0.891-0.951-1.276-0.418-0.3-0.816-0.641-1.296-0.868-0.338-0.396-2.532-1.868-3.188-2.331-0.57-0.402-1.060-0.757-1.614-1.168-0.383-0.284-1.301-1-1.589-1.157-0.228-0.636-0.137-1.207 0.531-1.276 0.504-0.052 1.085 0.524 1.537 0.727 0.104 0.255 6.106 4.55 6.483 4.614 0.195 0.331 0.287 0.342 0.653 0.535 1.13 1.137 3.25-0.149 2.543-1.803-0.203-0.474-0.994-1.028-1.385-1.396-0.313-0.295-1.209-1.111-1.525-1.214-0.172-0.329-0.061-0.211-0.423-0.394-0.064-0.195-1.546-1.538-1.882-1.623-0.168-0.275 0.075 0.015-0.221-0.287-0.105-0.107-0.179-0.155-0.322-0.256-0.218-0.268-0.476-0.426-0.75-0.678-0.324-0.297-0.529-0.546-0.867-0.655-0.262-0.546-3.795-3.298-4.894-4.494-0.41-0.446-1.514-0.651-2.197-0.515-0.543 0.108 0.334-0.117-0.202 0.060l-0.187 0.086c-0.569 0.069-1.42 0.824-1.363 1.412-0.019 0.027-0.039 0.039-0.046 0.088l-0.545 1.506c-2.118 3.896-6.856 2.922-6.002 0.67 1.014-2.675 0.399-1.509 0.834-3.742-0.113-1.040 0.78-2.017 0.998-2.742l-4.22-0.013c0.189-0.605 0.721-1.262 0.768-1.887 0.842-0.509 5.492-0.022 6.519-0.177 0.521-0.079 0.208 0.032 0.408-0.175 0.318-0.025 0.735-0.158 0.96-0.362zM33.527 1.85c0.411-0.502 2.079-1.302 2.873-1.664 1.701-0.775 1.784 1.072 2.402 1.885l2.25 4.617c0.013 0.016 0.038 0.046 0.060 0.067 0.021 0.339 1.749 3.973 1.953 4.155 0.531 1.923 2.552 3.489 0.648 4.495-0.428 0.226-1.209 0.522-1.51 0.86-0.974 0.104-0.403 0.495-2.022 0.33-0.165-0.266-0.236-0.285-0.418-0.636-0.068-0.131-0.113-0.262-0.184-0.375-0.168-0.268-0.047-0.113-0.223-0.271-0.010-0.363-1.731-3.963-1.977-4.223l-2.345-4.82c-0.054-0.591-1.332-2.742-1.596-3.562l0.089-0.858zM5.531 2.331c0.023-0.021 0.054-0.086 0.063-0.067l0.379-0.665c0.933-2.088 1.228-2.007 4.495-0.202 0.204 0.113 0.165 0.075 0.323 0.229l0.334 0.395-0.047 0.011c0.142 1.256-1.435 3.286-1.766 4.515-0.223 0.264-2.002 3.973-2.029 4.344-0.415 0.34-2.192 4.369-2.28 4.654-0.21 0.182-0.434 0.736-0.491 0.907-1.394 0.533-1.243 0.066-2.404-0.332-0.702-0.693-2.285-0.591-2.093-1.99 0.109-0.789 1.214-2.171 1.264-2.94l2.299-4.693c0.222-0.268 1.937-3.835 1.952-4.166z"></path>
</symbol>
<symbol id="icon-services" viewBox="0 0 35 32">
<path d="M5.832 21.502c0.923-0.287 1.777-0.802 2.816-1.092 2.607-0.727 4.739 0.216 7.080 0.233 1.658 0.012 6.633-0.575 7.348-0.172 0.828 0.468 1.632 2.867-0.847 3.369l-4.911 0.88c-0.584 0.105-1.148 0.205-1.724 0.307-1.265 0.224-0.664 0.859-0.485 0.916 0.268 0.084 2.993-0.298 3.461-0.362 2.056-0.285 4.587-0.61 6.218-1.513 1.16-0.642 5.916-4.486 6.864-4.817 1.246-0.434 2.177 0.362 1.952 1.627-0.181 1.018-1.156 1.544-1.866 2.083l-6.664 5.017c-1.685 1.265-2.604 2.24-5.561 2.274-2.519 0.030-5.033 0.126-7.57 0.163-1.292 0.018-2.558 0.066-3.867 0.081-0.972 0.011-0.937-0.050-1.431 0.482-0.339 0.365-0.619 0.545-1.258 0.669-3.652 0.708-4.255 0.559-4.626-2.398-0.148-1.18-0.295-2.333-0.448-3.509-0.108-0.828-0.531-2.77-0.167-3.438 0.556-1.018 1.313-1 2.663-1.196 1.962-0.286 1.854-0.554 3.023 0.397zM18.369 1.692c0.789-1.222-0.030-2.152 1.975-1.449 2.063 0.724 0.919 0.921 0.838 2.467 0.416 0.283 1.079 1.051 1.519 1.458 0.329 0.305 0.426 0.534 1.021 0.227 0.261-0.135 0.673-0.442 1.002-0.388 0.452 0.074 0.969 1.398 1.12 1.859 0.339 1.035-0.771 1.068-1.316 1.574-0.101 0.641 0.092 2.265 0.162 2.975 0.645 0.274 1.714 0.364 1.541 1.242-0.59 3.004-1.299 1.917-2.467 1.668-0.223 0.24-0.439 0.499-0.703 0.798-0.649 0.735-1.27 1.22-1.008 1.807 0.497 1.111 0.786 1.325-0.285 1.897-1.223 0.653-1.735 1.235-2.408-0.895-3.318-0.031-2.811 0.053-3.11 1.015-0.163 0.523-0.179 0.639-0.45 0.78-0.44 0.229-2.23-0.627-2.327-0.788-0.19-1.145 0.914-1.632-0.125-2.323-0.483-0.321-1.272-1.073-1.552-1.497-0.604 0.177-1.441 1.028-1.95 0.329-0.166-0.229-0.824-1.693-0.788-2.001 0.099-0.852 1.432-0.539 1.449-1.463 0.007-0.377-0.145-0.832-0.161-1.288-0.015-0.415 0.093-0.992-0.069-1.314-0.3-0.322-1.042-0.283-1.393-0.626-0.36-0.351-0.040-1.057 0.105-1.497 0.684-2.070 0.765-1.028 2.228-0.845l1.131-1.357c0.811-0.977 0.801-0.758 0.467-1.442-0.39-0.798-0.575-1.161 0.203-1.595 2.312-1.29 1.762-0.593 2.631 0.799l2.72-0.127zM16.74 5.014c-5.341 1.101-3.848 9.717 1.551 8.686 2.050-0.391 3.731-2.595 3.276-5.188-0.365-2.083-2.268-4.026-4.828-3.498zM29.555 5.472c0.015-0.468-0.108-0.898 0.325-1.041 0.39-0.128 0.921-0.056 1.058 0.197 0.452 0.831-0.384 0.52 1.466 1.216 0.341-0.212 0.59-0.776 1.079-0.463 0.32 0.204 0.736 0.595 0.398 1.114-0.373 0.573-0.255 0.479 0.064 1.168 0.35 0.758 0.355 0.461 1.143 0.645 0.116 0.286 0.18 0.782 0.038 1.126-0.165 0.402-0.456 0.295-0.896 0.4-0.111 0.286-0.164 0.587-0.296 0.905-0.16 0.387-0.192 0.557 0.090 0.876 0.219 0.247 0.371 0.43 0.151 0.813-0.562 0.976-0.946 0.451-1.368 0.106-0.188 0.063-0.868 0.424-1.045 0.545-0.44 0.301-0.072 0.358-0.397 1.122-1.832 0.409-0.818-0.63-1.603-0.981-0.232-0.104-0.903-0.364-1.171-0.397-0.16 0.202-0.488 0.654-0.873 0.51-0.216-0.081-0.678-0.494-0.606-0.87 0.098-0.514 0.526-0.429 0.252-1.028-0.128-0.281-0.339-0.776-0.52-0.999-0.406-0.034-0.809 0.021-0.953-0.361-0.139-0.371-0.060-0.908 0.147-1.115 0.251-0.165 0.509-0.086 0.823-0.154 1.137-2.184-0.606-1.713 0.214-2.75 0.421-0.532 0.666-0.553 1.213 0.117l1.265-0.698zM16.955 6.611c1.627-0.396 2.896 0.854 3.122 2.199 0.28 1.67-0.741 3.080-2.036 3.351-3.418 0.716-4.572-4.702-1.086-5.55zM30.261 7.502c-2.335 0.445-1.694 4.072 0.576 3.677 0.915-0.159 1.577-1.108 1.402-2.207-0.139-0.873-0.95-1.666-1.977-1.47zM25.353 21.914c-0.17-1.487-0.401-1.196 1.932-2.599 0.93-0.559 2.492-1.784 3.195-1.003-0.34 0.36-4.872 3.582-5.127 3.603zM23.742 19.072c0.525-0.407 1.351-0.755 1.988-1.074s1.398-0.88 2.162-0.331c-0.211 0.229-0.387 0.269-0.837 0.531l-2.614 1.456c-0.259-0.194-0.458-0.364-0.699-0.582z"></path>
</symbol>
<symbol id="icon-management" viewBox="0 0 51 32">
<path d="M23.999 29.388c-0.439-0.468-1.533-3.129-1.833-3.933-0.741-1.985-0.815-2.858-1.343-4.513-0.379 0.003-2.424 0.77-2.918 0.949-3.592 1.3-4.977 2.12-4.973 6.997 0.001 1.359 0.492 2.106 1.289 2.642 0.555 0.373 0.787 0.399 1.549 0.424 0.664 0.022 1.329 0.029 1.993 0.033l15.879 0c1.177-0.006 2.711 0.135 3.568-0.431 0.822-0.543 1.319-1.308 1.321-2.669 0.004-2.783-0.447-4.592-2.155-5.757-0.653-0.445-4.778-2.085-5.759-2.208-0.226 0.679-0.384 1.571-0.589 2.293-0.654 2.301-1.417 4.116-2.549 6.185-0.121-0.17-0.097-0.267-0.123-0.582-0.144-1.76-0.121-2.905-0.375-4.921-0.139-1.105 0.532-1.219 0.775-2.12 0.296-1.097-1.237-0.957-2.020-0.957-1.574 0.001-2.731-0.080-1.555 1.908 0.314 0.53 0.411 0.414 0.307 1.173-0.1 0.732-0.374 5.313-0.489 5.488z"></path>
<path d="M19.357 8.557c-0.57 0.032-1.001 0.079-1.083 0.596-0.132 0.838 0.068 2.815 0.794 3.39 0.385 0.305 0.598-0.026 0.758 0.463 0.339 1.034 0.016 0.476 0.74 1.959 0.627 1.285 1.624 2.609 2.738 3.433 1.362 1.007 3.475 1.021 4.788 0.055 0.578-0.426 1.122-0.988 1.564-1.522 1.027-1.239 1.61-2.617 2.055-4.185 0.705-0.080 0.718-0.075 1.023-0.645 0.399-0.747 0.569-2.025 0.448-2.881-0.094-0.662-0.405-0.635-1.073-0.66-0.214-2.089 0.521-4.076-1.2-6.254-1.064-1.347-3.304-2.255-5.175-2.304-1.693-0.045-4.245 1.024-5.177 2.302-1.747 2.395-0.985 4.054-1.201 6.253z"></path>
<path d="M39.878 15.918c0.187 1.401-1.079 1.006 0.090 3.107 0.309 0.556 1.456 2.1 1.84 2.269 0.38-0.15 1.508-1.687 1.811-2.23 1.073-1.919 0.19-1.563 0.080-3.168 1.336-0.006 2.74-0.312 3.749-1.102 0.474-0.371 0.545-0.392 0.23-0.969-0.822-1.506 0.473-2.664 0.404-5.575-0.081-3.429-2.824-6.725-6.34-6.684-0.41 0.005-1.001 0.141-1.311 0.297-0.387 0.195-0.606 0.492-1.065 0.563-1.186 0.183-1.497 0.501-2.095 1.163-1.688 1.869-2.145 5.090-1.427 7.682 0.24 0.866 0.627 1.764 0.072 2.598-0.345 0.519-0.348 0.54 0.136 0.91 1.024 0.784 2.521 1.051 3.825 1.14z"></path>
<path d="M4.907 7.93c-0.349 0.26-0.624 0.027-0.773 0.509-0.156 0.503 0.127 1.748 0.36 2.217 0.282 0.569 0.287 0.367 0.837 0.502 0.128 1.050 0.955 2.45 1.447 3.064 0.615 0.769 1.371 1.709 2.886 1.706 1.858-0.004 3.005-1.679 3.731-3.048 0.137-0.259 0.251-0.515 0.354-0.803 0.343-0.957 0.039-0.841 0.539-0.953 0.841-0.188 0.999-2.237 0.911-2.612-0.111-0.468-0.382-0.425-0.767-0.58-0.041-1.666-0.058-3.52-0.876-4.665-1.28-1.792-5.563-2.382-6.955-0.589-0.242 0.312-0.328 0.615-0.602 0.812-0.605 0.434-0.806 0.862-0.987 1.787-0.265 1.349-0.018 1.933-0.103 2.651z"></path>
<path d="M11.528 25.602c0.198-0.445 0.272-1.204 0.982-2.224 1.776-2.553 4.315-2.599 6.133-3.567-0.169-0.591-1.831-1.426-2.558-1.778-0.528-0.256-2.641-1.241-3.142-1.281-0.109 0.227-1.151 5.124-2.122 6.231-0.051-0.053-0.133 0.108-0.154-0.584l-0.139-2.028c-0.063-0.629-0.156-0.771 0.113-1.305 0.641-1.272 0.41-1.458-1.042-1.461-1.582-0.004-1.486 0.36-0.896 1.507 0.238 0.463 0.129 0.792 0.087 1.334-0.038 0.489-0.118 2.328-0.285 2.635-0.824-0.977-2.086-6.203-2.186-6.345-0.859 0.167-3.726 1.584-4.552 2.075-1.744 1.037-1.908 2.948-1.696 4.872 0.263 2.386 2.765 1.927 4.769 1.941 1.030 0.007 6.078 0.065 6.686-0.019z"></path>
<path d="M32.883 19.827c1.498 0.664 3.176 1.069 4.464 1.948 0.65 0.444 1.143 0.942 1.593 1.623 0.208 0.315 0.408 0.657 0.581 1.024 0.084 0.178 0.161 0.342 0.234 0.541 0.075 0.205 0.1 0.443 0.187 0.636 0.613 0.093 8.447 0.032 9.387-0.039 1.075-0.081 1.615-0.46 1.913-1.315 0.451-1.293 0.288-3.845-1.002-4.947-0.906-0.774-3.291-1.738-4.548-1.882 0.171 0.515 0.931 1.141 0.936 3.126-0.42-0.449-0.689-1.414-1.413-1.521-0.322 0.216-0.572 0.955-0.773 1.314-0.252 0.448-0.5 0.872-0.775 1.284-0.389 0.582-1.347 2.078-1.859 2.28-0.495 0.002-2.243-2.864-2.624-3.574-0.229-0.427-0.446-1.063-0.784-1.291-0.721 0.079-1.013 1.109-1.41 1.505-0.009-0.84 0.171-1.661 0.518-2.378 0.139-0.287 0.284-0.406 0.356-0.74-1.491 0.228-4.608 1.509-4.98 2.408z"></path>
</symbol>
<symbol id="icon-handshake" viewBox="0 0 51 32">
<path d="M5.859 16.303l0.977 1.204c0.234 0.301 0.814 0.971 0.957 1.233 0.471-0.105 1.269-1.256 2.924-0.669 0.509 0.181 0.87 0.456 1.155 0.754 0.409 0.43 0.441 0.676 0.78 1.184 0.283-0.188 0.554-0.918 1.291-1.348 1.19-0.695 2.918-0.151 3.655 1.074 0.442 0.735 0.422 1.224 0.452 2.179 0.614 0.055 0.78 0.023 1.287 0.294 0.316 0.168 0.776 0.512 0.934 0.7 0.829 0.987 0.7 1.623 0.768 2.446 0.829 0.278 1.945 0.205 2.727 1.704 0.931 1.783-0.187 2.697-0.361 3.363 0.627 0.409 2.991 0.911 3.928 0.985 0.769 0.061 1.565 0.031 2.136-0.309 0.367-0.218 1.172-0.852 1.239-1.244-0.43-0.418-4.839-2.329-5.044-2.667-0.206-0.343 0.083-0.865 0.67-0.675 0.537 0.174 3.448 1.617 4.213 1.977 0.719 0.338 1.527 0.687 2.455 0.513 0.956-0.179 1.417-1.159 1.381-1.736-0.033-0.517-1.299-1.127-1.737-1.383-0.569-0.332-4.56-2.549-4.788-2.919-0.215-0.351 0.249-0.817 0.651-0.651 0.518 0.215 5.203 2.972 5.928 3.353 0.765 0.401 1.537 0.639 2.425 0.172 0.814-0.429 0.927-1.096 0.863-2.239-1.317-0.847-2.834-1.671-4.165-2.51-0.943-0.594-2.19-1.317-3.081-1.925-0.329-0.225-0.785-0.439-0.286-0.943 0.633-0.343 7.911 4.534 8.568 4.759 0.755 0.257 2.709-0.024 2.562-1.843-0.078-0.964-1.247-1.778-2.040-2.397-2.244-1.747-5.387-4.105-7.78-5.602-2.406-1.505-3.86-2.296-6.345-3.61-0.319-0.168-0.433-0.316-0.817-0.205-0.414 0.119-1.46 0.373-1.667 0.586-0.764 0.792-0.731 1.155-2.179 2.318-1.181 0.949-3.279 1.902-4.935 1.504-0.528-0.127-1.017-0.588-1.068-1.194-0.118-1.405 0.577-2.419 1.163-3.297 0.274-0.412 1.725-2.423 1.783-2.722-0.817-0.376-2.542-0.254-4.015-1.052-0.262-0.142-0.862-0.547-1.111-0.593-0.284 0.388-0.572 0.968-0.813 1.394-0.737 1.307-5.327 9.314-5.641 10.033z"></path>
<path d="M41.229 18.885c0.546-0.428 0.919-0.454 1.783-1.289 0.464-0.448 1.243-1.071 1.589-1.574-0.084-0.286-2.938-5.26-3.15-5.633-0.797-1.393-2.431-4.455-3.177-5.587-1.131-0.054-1.075 0.626-4.025 0.083-1.277-0.235-2.484-0.573-3.833-0.772-2.449-0.361-6.176-0.149-8.543 0.328-1.846 0.371-1.933 0.573-2.822 1.788-0.656 0.896-1.292 1.777-1.908 2.703-0.322 0.486-0.608 0.89-0.917 1.387-0.306 0.491-0.627 0.924-0.642 1.653-0.017 0.84 0.329 0.931 1.457 0.742 0.702-0.118 1.217-0.315 1.75-0.619 1.176-0.672 2.264-1.684 2.968-2.767 0.262-0.403 0.153-0.338 0.68-0.501 2.722-0.84 1.866-0.942 4.971 0.699 0.97 0.512 2.033 1.129 2.985 1.684 2.992 1.745 6.688 4.462 9.49 6.647 0.288 0.225 1.077 0.937 1.344 1.028z"></path>
<path d="M0 14.77c0.151 0.106 0.258 0.229 0.445 0.356 0.668 0.457 3.068 1.98 3.547 2.007 0.501-0.473 3.81-6.471 4.24-7.218 1.059-1.838 2.034-3.713 3.071-5.531 0.301-0.527 0.791-1.363 1-1.911-0.179-0.257-3.472-2.37-3.925-2.472-0.318 0.171-0.466 0.504-0.665 0.851l-1.54 2.731c-0.311 0.591-0.691 1.234-1.038 1.832l-5.135 9.204v0.152z"></path>
<path d="M50.603 14.715l-1.998-3.721c-0.659-1.161-5.734-10.334-6.324-10.948-0.407 0.027-3.857 2.133-3.925 2.427-0.059 0.253 5.498 10.033 6.085 11.053l2.101 3.638c0.623-0.042 3.752-2.047 4.060-2.363v-0.084z"></path>
<path d="M14.827 19.421c-0.569 0.135-1.391 1.359-1.732 1.825l-2.223 3.062c-0.294 0.404-0.498 0.77-0.323 1.393 0.224 0.794 1.048 1.65 2.143 1.438 0.706-0.137 2.711-3.154 3.235-3.851 0.256-0.341 0.488-0.668 0.724-1.018 0.29-0.429 0.465-0.75 0.271-1.407-0.217-0.734-1.066-1.685-2.096-1.442z"></path>
<path d="M17.788 23.008c-0.29 0.070-0.316 0.104-0.46 0.279-0.924 1.125-1.497 1.841-2.375 3.078-0.461 0.652-0.992 1.264-0.516 2.262 0.288 0.605 1.065 1.284 2.015 1.081 0.691-0.148 2.339-2.669 2.825-3.347 0.436-0.609 0.965-1.244 0.52-2.254-0.266-0.604-1.076-1.324-2.010-1.099z"></path>
<path d="M20.964 26.509c-0.472 0.089-0.565 0.264-0.785 0.528-0.541 0.649-1.196 1.512-1.641 2.239-0.955 1.56 0.769 2.902 1.803 2.706 0.745-0.142 2.023-2.076 2.442-2.737 0.973-1.541-0.767-2.933-1.817-2.736z"></path>
<path d="M9.393 19.038c-0.63 0.195-1.873 2.066-1.938 2.52-0.151 1.051 1.141 2.424 2.224 2.066 0.414-0.137 0.895-0.745 1.129-1.067 0.246-0.339 0.777-0.943 0.829-1.417 0.142-1.265-1.007-2.484-2.244-2.101z"></path>
</symbol>
<symbol id="icon-home" viewBox="0 0 32 32">
<path d="M32 18.451l-16-12.42-16 12.42v-5.064l16-12.42 16 12.42zM28 18v12h-8v-8h-8v8h-8v-12l12-9z"></path>
</symbol>
<symbol id="icon-home3" viewBox="0 0 32 32">
<path d="M32 19l-6-6v-9h-4v5l-6-6-16 16v1h4v10h10v-6h4v6h10v-10h4z"></path>
</symbol>
<symbol id="icon-phone" viewBox="0 0 32 32">
<path d="M22 20c-2 2-2 4-4 4s-4-2-6-4-4-4-4-6 2-2 4-4-4-8-6-8-6 6-6 6c0 4 4.109 12.109 8 16s12 8 16 8c0 0 6-4 6-6s-6-8-8-6z"></path>
</symbol>
<symbol id="icon-address-book" viewBox="0 0 32 32">
<path d="M6 0v32h24v-32h-24zM18 8.010c2.203 0 3.99 1.786 3.99 3.99s-1.786 3.99-3.99 3.99-3.99-1.786-3.99-3.99 1.786-3.99 3.99-3.99v0zM24 24h-12v-2c0-2.209 1.791-4 4-4v0h4c2.209 0 4 1.791 4 4v2z"></path>
<path d="M2 2h3v6h-3v-6z"></path>
<path d="M2 10h3v6h-3v-6z"></path>
<path d="M2 18h3v6h-3v-6z"></path>
<path d="M2 26h3v6h-3v-6z"></path>
</symbol>
<symbol id="icon-envelop" viewBox="0 0 32 32">
<path d="M29 4h-26c-1.65 0-3 1.35-3 3v20c0 1.65 1.35 3 3 3h26c1.65 0 3-1.35 3-3v-20c0-1.65-1.35-3-3-3zM12.461 17.199l-8.461 6.59v-15.676l8.461 9.086zM5.512 8h20.976l-10.488 7.875-10.488-7.875zM12.79 17.553l3.21 3.447 3.21-3.447 6.58 8.447h-19.579l6.58-8.447zM19.539 17.199l8.461-9.086v15.676l-8.461-6.59z"></path>
</symbol>
<symbol id="icon-location2" viewBox="0 0 32 32">
<path d="M16 0c-5.523 0-10 4.477-10 10 0 10 10 22 10 22s10-12 10-22c0-5.523-4.477-10-10-10zM16 16.125c-3.383 0-6.125-2.742-6.125-6.125s2.742-6.125 6.125-6.125 6.125 2.742 6.125 6.125-2.742 6.125-6.125 6.125zM12.125 10c0-2.14 1.735-3.875 3.875-3.875s3.875 1.735 3.875 3.875c0 2.14-1.735 3.875-3.875 3.875s-3.875-1.735-3.875-3.875z"></path>
</symbol>
<symbol id="icon-user-tie" viewBox="0 0 32 32">
<path d="M10 6c0-3.314 2.686-6 6-6s6 2.686 6 6c0 3.314-2.686 6-6 6s-6-2.686-6-6zM24.002 14h-1.107l-6.222 12.633 2.327-11.633-3-3-3 3 2.327 11.633-6.222-12.633h-1.107c-3.998 0-3.998 2.687-3.998 6v10h24v-10c0-3.313 0-6-3.998-6z"></path>
</symbol>
<symbol id="icon-search" viewBox="0 0 32 32">
<path d="M31.008 27.231l-7.58-6.447c-0.784-0.705-1.622-1.029-2.299-0.998 1.789-2.096 2.87-4.815 2.87-7.787 0-6.627-5.373-12-12-12s-12 5.373-12 12 5.373 12 12 12c2.972 0 5.691-1.081 7.787-2.87-0.031 0.677 0.293 1.515 0.998 2.299l6.447 7.58c1.104 1.226 2.907 1.33 4.007 0.23s0.997-2.903-0.23-4.007zM12 20c-4.418 0-8-3.582-8-8s3.582-8 8-8 8 3.582 8 8-3.582 8-8 8z"></path>
</symbol>
<symbol id="icon-star-full" viewBox="0 0 32 32">
<path d="M32 12.408l-11.056-1.607-4.944-10.018-4.944 10.018-11.056 1.607 8 7.798-1.889 11.011 9.889-5.199 9.889 5.199-1.889-11.011 8-7.798z"></path>
</symbol>
<symbol id="icon-facebook2" viewBox="0 0 32 32">
<path d="M29 0h-26c-1.65 0-3 1.35-3 3v26c0 1.65 1.35 3 3 3h13v-14h-4v-4h4v-2c0-3.306 2.694-6 6-6h4v4h-4c-1.1 0-2 0.9-2 2v2h6l-1 4h-5v14h9c1.65 0 3-1.35 3-3v-26c0-1.65-1.35-3-3-3z"></path>
</symbol>
<symbol id="icon-instagram" viewBox="0 0 32 32">
<path d="M16 2.881c4.275 0 4.781 0.019 6.462 0.094 1.563 0.069 2.406 0.331 2.969 0.55 0.744 0.288 1.281 0.638 1.837 1.194 0.563 0.563 0.906 1.094 1.2 1.838 0.219 0.563 0.481 1.412 0.55 2.969 0.075 1.688 0.094 2.194 0.094 6.463s-0.019 4.781-0.094 6.463c-0.069 1.563-0.331 2.406-0.55 2.969-0.288 0.744-0.637 1.281-1.194 1.837-0.563 0.563-1.094 0.906-1.837 1.2-0.563 0.219-1.413 0.481-2.969 0.55-1.688 0.075-2.194 0.094-6.463 0.094s-4.781-0.019-6.463-0.094c-1.563-0.069-2.406-0.331-2.969-0.55-0.744-0.288-1.281-0.637-1.838-1.194-0.563-0.563-0.906-1.094-1.2-1.837-0.219-0.563-0.481-1.413-0.55-2.969-0.075-1.688-0.094-2.194-0.094-6.463s0.019-4.781 0.094-6.463c0.069-1.563 0.331-2.406 0.55-2.969 0.288-0.744 0.638-1.281 1.194-1.838 0.563-0.563 1.094-0.906 1.838-1.2 0.563-0.219 1.412-0.481 2.969-0.55 1.681-0.075 2.188-0.094 6.463-0.094zM16 0c-4.344 0-4.887 0.019-6.594 0.094-1.7 0.075-2.869 0.35-3.881 0.744-1.056 0.412-1.95 0.956-2.837 1.85-0.894 0.888-1.438 1.781-1.85 2.831-0.394 1.019-0.669 2.181-0.744 3.881-0.075 1.713-0.094 2.256-0.094 6.6s0.019 4.887 0.094 6.594c0.075 1.7 0.35 2.869 0.744 3.881 0.413 1.056 0.956 1.95 1.85 2.837 0.887 0.887 1.781 1.438 2.831 1.844 1.019 0.394 2.181 0.669 3.881 0.744 1.706 0.075 2.25 0.094 6.594 0.094s4.888-0.019 6.594-0.094c1.7-0.075 2.869-0.35 3.881-0.744 1.050-0.406 1.944-0.956 2.831-1.844s1.438-1.781 1.844-2.831c0.394-1.019 0.669-2.181 0.744-3.881 0.075-1.706 0.094-2.25 0.094-6.594s-0.019-4.887-0.094-6.594c-0.075-1.7-0.35-2.869-0.744-3.881-0.394-1.063-0.938-1.956-1.831-2.844-0.887-0.887-1.781-1.438-2.831-1.844-1.019-0.394-2.181-0.669-3.881-0.744-1.712-0.081-2.256-0.1-6.6-0.1v0z"></path>
<path d="M16 7.781c-4.537 0-8.219 3.681-8.219 8.219s3.681 8.219 8.219 8.219 8.219-3.681 8.219-8.219c0-4.537-3.681-8.219-8.219-8.219zM16 21.331c-2.944 0-5.331-2.387-5.331-5.331s2.387-5.331 5.331-5.331c2.944 0 5.331 2.387 5.331 5.331s-2.387 5.331-5.331 5.331z"></path>
<path d="M26.462 7.456c0 1.060-0.859 1.919-1.919 1.919s-1.919-0.859-1.919-1.919c0-1.060 0.859-1.919 1.919-1.919s1.919 0.859 1.919 1.919z"></path>
</symbol>
<symbol id="icon-whatsapp" viewBox="0 0 32 32">
<path d="M27.281 4.65c-2.994-3-6.975-4.65-11.219-4.65-8.738 0-15.85 7.112-15.85 15.856 0 2.794 0.731 5.525 2.119 7.925l-2.25 8.219 8.406-2.206c2.319 1.262 4.925 1.931 7.575 1.931h0.006c0 0 0 0 0 0 8.738 0 15.856-7.113 15.856-15.856 0-4.238-1.65-8.219-4.644-11.219zM16.069 29.050v0c-2.369 0-4.688-0.637-6.713-1.837l-0.481-0.288-4.987 1.306 1.331-4.863-0.313-0.5c-1.325-2.094-2.019-4.519-2.019-7.012 0-7.269 5.912-13.181 13.188-13.181 3.519 0 6.831 1.375 9.319 3.862 2.488 2.494 3.856 5.8 3.856 9.325-0.006 7.275-5.919 13.188-13.181 13.188zM23.294 19.175c-0.394-0.2-2.344-1.156-2.706-1.288s-0.625-0.2-0.894 0.2c-0.262 0.394-1.025 1.288-1.256 1.556-0.231 0.262-0.462 0.3-0.856 0.1s-1.675-0.619-3.188-1.969c-1.175-1.050-1.975-2.35-2.206-2.744s-0.025-0.613 0.175-0.806c0.181-0.175 0.394-0.463 0.594-0.694s0.262-0.394 0.394-0.662c0.131-0.262 0.069-0.494-0.031-0.694s-0.894-2.15-1.219-2.944c-0.319-0.775-0.65-0.669-0.894-0.681-0.231-0.012-0.494-0.012-0.756-0.012s-0.694 0.1-1.056 0.494c-0.363 0.394-1.387 1.356-1.387 3.306s1.419 3.831 1.619 4.1c0.2 0.262 2.794 4.269 6.769 5.981 0.944 0.406 1.681 0.65 2.256 0.837 0.95 0.3 1.813 0.256 2.494 0.156 0.762-0.113 2.344-0.956 2.675-1.881s0.331-1.719 0.231-1.881c-0.094-0.175-0.356-0.275-0.756-0.475z"></path>
</symbol>
</defs>
</svg>
